<svg id="ai_1_" data-name="ai (1)" xmlns="http://www.w3.org/2000/svg" width="27" height="27" viewBox="0 0 27 27">
  <path id="Path_85" data-name="Path 85" d="M96.451,81.824h-12.4a2.231,2.231,0,0,0-2.231,2.231v12.4a2.231,2.231,0,0,0,2.231,2.231h12.4a2.231,2.231,0,0,0,2.231-2.231v-12.4A2.231,2.231,0,0,0,96.451,81.824Zm.372,13.387a1.611,1.611,0,0,1-1.611,1.611H85.295a1.611,1.611,0,0,1-1.611-1.611V85.295a1.611,1.611,0,0,1,1.611-1.611h9.916a1.611,1.611,0,0,1,1.611,1.611Zm0,0" transform="translate(-76.753 -76.753)" fill="#6a7dc7"/>
  <path id="Path_86" data-name="Path 86" d="M193.734,189.432H195.1l-.682-2.338Zm0,0" transform="translate(-181.727 -175.498)" fill="#6a7dc7"/>
  <path id="Path_87" data-name="Path 87" d="M134.608,123.824h-9.916a.867.867,0,0,0-.868.868v9.916a.868.868,0,0,0,.868.868h9.916a.868.868,0,0,0,.868-.868v-9.916A.868.868,0,0,0,134.608,123.824Zm-4.4,7.968c-.116,0-.211-.026-.245-.135l-.279-.953H128l-.279.953c-.034.109-.13.143-.252.143-.2,0-.45-.126-.45-.3a.206.206,0,0,1,.007-.063l1.357-4.419a.455.455,0,0,1,.457-.246.465.465,0,0,1,.464.245l1.35,4.418a.192.192,0,0,1,.014.062C130.666,131.663,130.413,131.792,130.209,131.792Zm1.734-.239c0,.157-.188.239-.372.239s-.372-.082-.372-.239V127.04c0-.163.195-.232.372-.232s.372.068.372.232Zm0,0" transform="translate(-116.15 -116.15)" fill="#6a7dc7"/>
  <path id="Path_88" data-name="Path 88" d="M234.2,373.645a.372.372,0,0,0-.372.372v3.1a.372.372,0,1,0,.744,0v-3.1A.372.372,0,0,0,234.2,373.645Zm0,0" transform="translate(-219.332 -350.488)" fill="#6a7dc7"/>
  <path id="Path_89" data-name="Path 89" d="M190.2,373.645a.372.372,0,0,0-.372.372v3.1a.372.372,0,1,0,.744,0v-3.1A.372.372,0,0,0,190.2,373.645Zm0,0" transform="translate(-178.059 -350.488)" fill="#6a7dc7"/>
  <path id="Path_90" data-name="Path 90" d="M147.2,373.645a.372.372,0,0,0-.372.372v3.1a.372.372,0,1,0,.744,0v-3.1A.372.372,0,0,0,147.2,373.645Zm0,0" transform="translate(-137.724 -350.488)" fill="#6a7dc7"/>
  <path id="Path_91" data-name="Path 91" d="M277.2,373.645a.372.372,0,0,0-.372.372v3.1a.372.372,0,1,0,.744,0v-3.1A.372.372,0,0,0,277.2,373.645Zm0,0" transform="translate(-259.667 -350.488)" fill="#6a7dc7"/>
  <path id="Path_92" data-name="Path 92" d="M189.824.372v3.1a.372.372,0,0,0,.744,0V.372a.372.372,0,0,0-.744,0Zm0,0" transform="translate(-178.059)" fill="#6a7dc7"/>
  <path id="Path_93" data-name="Path 93" d="M233.824.372v3.1a.372.372,0,0,0,.744,0V.372a.372.372,0,0,0-.744,0Zm0,0" transform="translate(-219.332)" fill="#6a7dc7"/>
  <path id="Path_94" data-name="Path 94" d="M277.2,3.843a.372.372,0,0,0,.372-.372V.372a.372.372,0,1,0-.744,0v3.1A.372.372,0,0,0,277.2,3.843Zm0,0" transform="translate(-259.667)" fill="#6a7dc7"/>
  <path id="Path_95" data-name="Path 95" d="M146.824.372v3.1a.372.372,0,1,0,.744,0V.372a.372.372,0,1,0-.744,0Zm0,0" transform="translate(-137.724)" fill="#6a7dc7"/>
  <path id="Path_96" data-name="Path 96" d="M377.116,189.824h-3.1a.372.372,0,0,0,0,.744h3.1a.372.372,0,1,0,0-.744Zm0,0" transform="translate(-350.488 -178.059)" fill="#6a7dc7"/>
  <path id="Path_97" data-name="Path 97" d="M377.116,233.824h-3.1a.372.372,0,0,0,0,.744h3.1a.372.372,0,1,0,0-.744Zm0,0" transform="translate(-350.488 -219.332)" fill="#6a7dc7"/>
  <path id="Path_98" data-name="Path 98" d="M377.116,276.824h-3.1a.372.372,0,0,0,0,.744h3.1a.372.372,0,1,0,0-.744Zm0,0" transform="translate(-350.488 -259.667)" fill="#6a7dc7"/>
  <path id="Path_99" data-name="Path 99" d="M377.116,146.824h-3.1a.372.372,0,1,0,0,.744h3.1a.372.372,0,1,0,0-.744Zm0,0" transform="translate(-350.488 -137.724)" fill="#6a7dc7"/>
  <path id="Path_100" data-name="Path 100" d="M3.471,233.824H.372a.372.372,0,0,0,0,.744h3.1a.372.372,0,0,0,0-.744Zm0,0" transform="translate(0 -219.332)" fill="#6a7dc7"/>
  <path id="Path_101" data-name="Path 101" d="M3.471,189.824H.372a.372.372,0,0,0,0,.744h3.1a.372.372,0,0,0,0-.744Zm0,0" transform="translate(0 -178.059)" fill="#6a7dc7"/>
  <path id="Path_102" data-name="Path 102" d="M3.471,146.824H.372a.372.372,0,1,0,0,.744h3.1a.372.372,0,1,0,0-.744Zm0,0" transform="translate(0 -137.724)" fill="#6a7dc7"/>
  <path id="Path_103" data-name="Path 103" d="M3.471,276.824H.372a.372.372,0,1,0,0,.744h3.1a.372.372,0,1,0,0-.744Zm0,0" transform="translate(0 -259.667)" fill="#6a7dc7"/>
</svg>
