<svg xmlns="http://www.w3.org/2000/svg" width="511.992" height="491.47" viewBox="0 0 511.992 491.47">
  <g id="XMLID_806_" transform="translate(0 -10.262)">
    <g id="XMLID_386_">
      <path id="XMLID_389_" d="M511.005,279.646a201.835,201.835,0,0,0-156.95-176.983V77.255a34,34,0,0,0-8.206-66.993h-72a34,34,0,0,0-8.207,66.993v25.479A200.792,200.792,0,0,0,167.165,156.9a202.966,202.966,0,0,0-16.979,19.269c-.251-.019-.5-.038-.758-.038H78.167a10,10,0,0,0,0,20h58.412a200.467,200.467,0,0,0-17.744,38.436H10a10,10,0,0,0,0,20H113.184a203.323,203.323,0,0,0-4.963,38.437H64a10,10,0,0,0,0,20h44.54a203.025,203.025,0,0,0,6.244,38.437H50a10,10,0,0,0,0,20h71.166A201.973,201.973,0,0,0,290.033,500.757q9.909.978,19.819.975A202.485,202.485,0,0,0,420.09,469.151a10,10,0,1,0-10.914-16.76c-71.557,46.6-167.39,36.522-227.869-23.957-70.962-70.962-70.962-186.425,0-257.388s186.424-70.961,257.387,0c60.4,60.4,70.529,156.151,24.086,227.673a10,10,0,1,0,16.773,10.892A202.644,202.644,0,0,0,511.005,279.646ZM259.849,44.263a14.015,14.015,0,0,1,14-14h72a14,14,0,0,1,0,28h-72A14.016,14.016,0,0,1,259.849,44.263ZM285.642,99.3V78.263h48.413v21A203.755,203.755,0,0,0,285.642,99.3Z" fill="#745beb"/>
      <path id="XMLID_391_" d="M445.77,425.5a10,10,0,1,0,7.07,2.93A10.054,10.054,0,0,0,445.77,425.5Z" fill="#745beb"/>
      <path id="XMLID_394_" d="M310,144.609c-85.538,0-155.129,69.59-155.129,155.129S224.463,454.867,310,454.867,465.13,385.277,465.13,299.738,395.539,144.609,310,144.609Zm0,290.258c-74.511,0-135.129-60.619-135.129-135.129S235.49,164.609,310,164.609,445.13,225.228,445.13,299.738,384.512,434.867,310,434.867Z" fill="#745beb"/>
      <path id="XMLID_397_" d="M373.257,222.34l-49.53,49.529a30.995,30.995,0,0,0-27.452,0L274.108,249.7a10,10,0,1,0-14.143,14.142l22.167,22.167a31.074,31.074,0,1,0,55.738,0l48.076-48.076h0l1.453-1.453a10,10,0,1,0-14.142-14.142ZM310,310.812a11.074,11.074,0,1,1,11.074-11.074A11.087,11.087,0,0,1,310,310.812Z" fill="#745beb"/>
      <path id="XMLID_398_" d="M416.92,289.86h-9.265a10,10,0,0,0,0,20h9.265a10,10,0,0,0,0-20Z" fill="#745beb"/>
      <path id="XMLID_399_" d="M212.346,289.616h-9.264a10,10,0,1,0,0,20h9.264a10,10,0,1,0,0-20Z" fill="#745beb"/>
      <path id="XMLID_400_" d="M310.123,212.083a10,10,0,0,0,10-10v-9.264a10,10,0,1,0-20,0v9.264A10,10,0,0,0,310.123,212.083Z" fill="#745beb"/>
      <path id="XMLID_424_" d="M309.879,387.393a10,10,0,0,0-10,10v9.264a10,10,0,0,0,20,0v-9.264A10,10,0,0,0,309.879,387.393Z" fill="#745beb"/>
      <path id="XMLID_425_" d="M10,351.44a10,10,0,1,0,7.069,17.07A10,10,0,0,0,10,351.44Z" fill="#745beb"/>
    </g>
  </g>
</svg>
