<svg xmlns="http://www.w3.org/2000/svg" width="416.003" height="480.011" viewBox="0 0 416.003 480.011">
  <g id="price" transform="translate(-0.005 -0.001)">
    <path id="Path_687" data-name="Path 687" d="M128,280.012a16,16,0,0,1,16,16,8,8,0,0,0,16,0,32,32,0,0,0-24-30.863v-9.137a8,8,0,0,0-16,0v9.137a31.936,31.936,0,0,0,8,62.863,16,16,0,1,1-16,16,8,8,0,1,0-16,0,32,32,0,0,0,24,30.863v9.137a8,8,0,0,0,16,0V374.9a31.935,31.935,0,0,0-8-62.887,16,16,0,1,1,0-32Zm0,0" fill="#745beb"/>
    <path id="Path_688" data-name="Path 688" d="M152,200.012H104a8,8,0,0,0,0,16h48a8,8,0,0,0,0-16Zm0,0" fill="#745beb"/>
    <path id="Path_689" data-name="Path 689" d="M152,424.012H104a8,8,0,0,0,0,16h48a8,8,0,0,0,0-16Zm0,0" fill="#745beb"/>
    <path id="Path_690" data-name="Path 690" d="M406.348,308.012,288.9,104.61a134.715,134.715,0,0,0,19.055-23.742c13.336-21.6,15.719-42.105,6.7-57.719-17.941-31.082-74.605-30.832-129,.566a197.931,197.931,0,0,0-20.8,14.023l-6.457-7.328a40.527,40.527,0,0,0-60.8,0L10.149,129.516A40.518,40.518,0,0,0,0,156.348V408.012a72.081,72.081,0,0,0,72,72H184a72.079,72.079,0,0,0,72-72V156.348a40.431,40.431,0,0,0-6.4-21.738h.063a195.415,195.415,0,0,0,27.137-18.926L392.493,316.012a56,56,0,0,1-20.488,76.512l-96.992,56a55.513,55.513,0,0,1-13.6,5.535,8,8,0,0,0,4.113,15.465,71.935,71.935,0,0,0,17.445-7.145l96.992-56a71.994,71.994,0,0,0,26.383-98.367ZM240,408.012a56.063,56.063,0,0,1-56,56H72a56.065,56.065,0,0,1-56-56V156.348a24.555,24.555,0,0,1,6.145-16.25L109.606,41a24.506,24.506,0,0,1,36.8,0l78.023,88.422a132.423,132.423,0,0,1-57.047,12.656,39.579,39.579,0,0,0,.621-6.07,40.045,40.045,0,0,0-40-40,7.8,7.8,0,0,0-2.566.52,7.912,7.912,0,0,0-8.68,6.105,44.718,44.718,0,0,0,3.91,32.484A43.343,43.343,0,0,0,144,153.821a23.9,23.9,0,0,1-40-17.809,8,8,0,0,0-16,0,39.946,39.946,0,0,0,73.547,21.648,93.7,93.7,0,0,0,9.48.52A154.292,154.292,0,0,0,235.277,142,24.453,24.453,0,0,1,240,156.348Zm-88-272a23.879,23.879,0,0,1-.352,3.5,29.08,29.08,0,0,1-17.125-12.387,25.665,25.665,0,0,1-3.043-14.758A24,24,0,0,1,152,136.012Zm89.656-15.328c-.8.465-1.6.863-2.4,1.313L175.5,49.731A181.462,181.462,0,0,1,193.66,37.61C238.727,11.578,287.8,8.637,300.8,31.211c5.945,10.281,3.648,24.961-6.457,41.32a114.531,114.531,0,0,1-13.758,17.734l-.082-.145a40.526,40.526,0,0,0-22.2-18.168l-31.328-10.59a8,8,0,0,0-5.094,15.16l31.328,10.535a24.585,24.585,0,0,1,13.438,11l2.039,3.527a178.24,178.24,0,0,1-27.023,19.121Zm0,0" fill="#745beb"/>
    <path id="Path_691" data-name="Path 691" d="M273.078,322.469A8,8,0,0,0,284,325.395l55.426-32a8,8,0,1,0-8-13.855l-55.426,32a8,8,0,0,0-2.926,10.93Zm0,0" fill="#745beb"/>
    <path id="Path_692" data-name="Path 692" d="M283.207,372.012a7.994,7.994,0,0,0,10.926,2.934l69.281-40a8,8,0,0,0-8-13.863l-69.281,40a8,8,0,0,0-2.926,10.93Zm0,0" fill="#745beb"/>
    <path id="Path_693" data-name="Path 693" d="M287.727,275.828a8,8,0,0,0,4-1.074l27.711-16a8,8,0,1,0-8-13.855l-27.711,16a8,8,0,0,0,4,14.93Zm0,0" fill="#745beb"/>
  </g>
</svg>
