<svg id="process" xmlns="http://www.w3.org/2000/svg" width="12.799" height="12.799" viewBox="0 0 12.799 12.799">
  <g id="Group_41" data-name="Group 41" transform="translate(0 0)">
    <g id="Group_40" data-name="Group 40">
      <path id="Path_108" data-name="Path 108" d="M5.1,2.257a.213.213,0,0,0-.173-.186l-.542-.1a1.759,1.759,0,0,0-.119-.286l.314-.452a.213.213,0,0,0,0-.254A2.573,2.573,0,0,0,4.153.552a.213.213,0,0,0-.254,0l-.465.3A1.759,1.759,0,0,0,3.149.734l-.1-.542A.213.213,0,0,0,2.863.019a2.4,2.4,0,0,0-.606,0,.213.213,0,0,0-.186.173l-.1.542a1.759,1.759,0,0,0-.286.119L1.233.54a.213.213,0,0,0-.254,0A2.572,2.572,0,0,0,.552.966a.213.213,0,0,0,0,.254l.3.465a1.759,1.759,0,0,0-.119.286l-.542.1a.213.213,0,0,0-.173.186,2.4,2.4,0,0,0,0,.606.213.213,0,0,0,.173.186l.542.1a1.759,1.759,0,0,0,.119.286L.54,3.887a.213.213,0,0,0,0,.254,2.573,2.573,0,0,0,.427.427.213.213,0,0,0,.254,0l.465-.3a1.758,1.758,0,0,0,.286.119l.1.542a.213.213,0,0,0,.186.173,2.4,2.4,0,0,0,.606,0,.213.213,0,0,0,.186-.173l.1-.542a1.759,1.759,0,0,0,.286-.119l.452.314a.213.213,0,0,0,.254,0,2.573,2.573,0,0,0,.427-.427.213.213,0,0,0,0-.254l-.3-.465a1.758,1.758,0,0,0,.119-.286l.542-.1A.213.213,0,0,0,5.1,2.863,2.4,2.4,0,0,0,5.1,2.257Zm-.4.307v.1l-.512.094a.213.213,0,0,0-.169.16,1.445,1.445,0,0,1-.177.427.213.213,0,0,0,0,.233L4.134,4A1.418,1.418,0,0,1,4,4.14l-.427-.294a.213.213,0,0,0-.233,0,1.445,1.445,0,0,1-.427.177.213.213,0,0,0-.16.169l-.092.5h-.2l-.094-.512a.213.213,0,0,0-.16-.169,1.445,1.445,0,0,1-.427-.177.213.213,0,0,0-.233,0l-.427.294a1.418,1.418,0,0,1-.139-.139l.294-.427a.213.213,0,0,0,0-.233A1.445,1.445,0,0,1,1.1,2.905a.213.213,0,0,0-.169-.16L.427,2.658v-.2l.514-.094a.213.213,0,0,0,.169-.16,1.445,1.445,0,0,1,.177-.427.213.213,0,0,0-.006-.228L.986,1.126A1.418,1.418,0,0,1,1.124.988l.429.292a.213.213,0,0,0,.233,0A1.445,1.445,0,0,1,2.212,1.1a.213.213,0,0,0,.16-.169l.09-.508h.2l.094.512a.213.213,0,0,0,.16.169,1.445,1.445,0,0,1,.427.177.213.213,0,0,0,.233,0L4,.99a1.418,1.418,0,0,1,.139.139l-.3.425a.213.213,0,0,0,0,.233,1.445,1.445,0,0,1,.177.427.213.213,0,0,0,.169.16l.512.094Z" transform="translate(0 0)" fill="#de7f7f"/>
    </g>
  </g>
  <g id="Group_43" data-name="Group 43" transform="translate(7.679 3.84)">
    <g id="Group_42" data-name="Group 42">
      <path id="Path_109" data-name="Path 109" d="M293.1,146.257a.213.213,0,0,0-.173-.186l-.542-.1a1.754,1.754,0,0,0-.119-.286l.314-.452a.213.213,0,0,0,0-.254,2.573,2.573,0,0,0-.427-.427.213.213,0,0,0-.254,0l-.465.3a1.759,1.759,0,0,0-.286-.119l-.1-.542a.213.213,0,0,0-.186-.173,2.4,2.4,0,0,0-.606,0,.213.213,0,0,0-.186.173l-.1.542a1.761,1.761,0,0,0-.286.119l-.452-.314a.213.213,0,0,0-.254,0,2.572,2.572,0,0,0-.427.427.213.213,0,0,0,0,.254l.3.465a1.759,1.759,0,0,0-.119.286l-.542.1a.213.213,0,0,0-.173.186,2.4,2.4,0,0,0,0,.606.213.213,0,0,0,.173.186l.542.1a1.759,1.759,0,0,0,.119.286l-.314.452a.213.213,0,0,0,0,.254,2.571,2.571,0,0,0,.427.427.213.213,0,0,0,.254,0l.465-.3a1.761,1.761,0,0,0,.286.119l.1.542a.213.213,0,0,0,.186.173,2.4,2.4,0,0,0,.606,0,.213.213,0,0,0,.186-.173l.1-.542a1.759,1.759,0,0,0,.286-.119l.452.314a.213.213,0,0,0,.254,0,2.574,2.574,0,0,0,.427-.427.213.213,0,0,0,0-.254l-.3-.465a1.754,1.754,0,0,0,.119-.286l.542-.1a.213.213,0,0,0,.173-.186A2.4,2.4,0,0,0,293.1,146.257Zm-.395.3c0,.032-.013.064-.013.1l-.512.094a.213.213,0,0,0-.169.16,1.445,1.445,0,0,1-.177.427.213.213,0,0,0,0,.233l.294.427a1.416,1.416,0,0,1-.139.139l-.427-.294a.213.213,0,0,0-.233,0,1.445,1.445,0,0,1-.427.177.213.213,0,0,0-.16.169l-.087.506h-.2l-.094-.512a.213.213,0,0,0-.16-.169,1.445,1.445,0,0,1-.427-.177.213.213,0,0,0-.233,0l-.427.294a1.42,1.42,0,0,1-.139-.139l.294-.427a.213.213,0,0,0,0-.233,1.445,1.445,0,0,1-.177-.427.213.213,0,0,0-.169-.16l-.506-.087v-.2l.512-.094a.213.213,0,0,0,.169-.16,1.445,1.445,0,0,1,.177-.427.213.213,0,0,0,0-.233l-.294-.427a1.413,1.413,0,0,1,.139-.139l.427.294a.213.213,0,0,0,.233,0,1.445,1.445,0,0,1,.427-.177.213.213,0,0,0,.16-.169l.094-.512h.2l.094.512a.213.213,0,0,0,.16.169,1.444,1.444,0,0,1,.427.177.213.213,0,0,0,.233,0l.427-.294a1.413,1.413,0,0,1,.139.139l-.294.427a.213.213,0,0,0,0,.233,1.444,1.444,0,0,1,.177.427.213.213,0,0,0,.169.16l.512.094Z" transform="translate(-288 -144)" fill="#de7f7f"/>
    </g>
  </g>
  <g id="Group_45" data-name="Group 45" transform="translate(0 7.679)">
    <g id="Group_44" data-name="Group 44">
      <path id="Path_110" data-name="Path 110" d="M5.1,290.257a.213.213,0,0,0-.173-.186l-.542-.1a1.76,1.76,0,0,0-.119-.286l.314-.452a.213.213,0,0,0,0-.254,2.573,2.573,0,0,0-.427-.427.213.213,0,0,0-.254,0l-.465.3a1.76,1.76,0,0,0-.286-.119l-.1-.542a.213.213,0,0,0-.186-.173,2.4,2.4,0,0,0-.606,0,.213.213,0,0,0-.186.173l-.1.542a1.76,1.76,0,0,0-.286.119l-.452-.314a.213.213,0,0,0-.254,0,2.57,2.57,0,0,0-.427.427.213.213,0,0,0,0,.254l.3.465a1.76,1.76,0,0,0-.119.286l-.542.1a.213.213,0,0,0-.173.186,2.4,2.4,0,0,0,0,.606.213.213,0,0,0,.173.186l.542.1a1.758,1.758,0,0,0,.119.286l-.314.452a.213.213,0,0,0,0,.254,2.574,2.574,0,0,0,.427.427.213.213,0,0,0,.254,0l.465-.3a1.754,1.754,0,0,0,.286.119l.1.542a.213.213,0,0,0,.186.173,2.4,2.4,0,0,0,.606,0,.213.213,0,0,0,.186-.173l.1-.542a1.754,1.754,0,0,0,.286-.119l.452.314a.213.213,0,0,0,.254,0,2.573,2.573,0,0,0,.427-.427.213.213,0,0,0,0-.254l-.3-.465a1.758,1.758,0,0,0,.119-.286l.542-.1a.213.213,0,0,0,.173-.186A2.4,2.4,0,0,0,5.1,290.257Zm-.395.3v.1l-.512.094a.213.213,0,0,0-.169.16,1.445,1.445,0,0,1-.177.427.213.213,0,0,0,0,.232l.294.427a1.427,1.427,0,0,1-.139.139l-.427-.294a.213.213,0,0,0-.233,0,1.444,1.444,0,0,1-.427.177.213.213,0,0,0-.16.169l-.1.506h-.2l-.094-.512a.213.213,0,0,0-.16-.169,1.445,1.445,0,0,1-.427-.177.213.213,0,0,0-.233,0l-.427.294a1.417,1.417,0,0,1-.139-.139l.294-.427a.213.213,0,0,0,0-.233,1.445,1.445,0,0,1-.177-.427.213.213,0,0,0-.169-.16l-.506-.087v-.2l.512-.094a.213.213,0,0,0,.169-.16,1.445,1.445,0,0,1,.177-.427.213.213,0,0,0,0-.233l-.294-.427a1.42,1.42,0,0,1,.139-.139l.427.294a.213.213,0,0,0,.233,0,1.445,1.445,0,0,1,.427-.177.213.213,0,0,0,.16-.169l.094-.512h.2l.094.512a.213.213,0,0,0,.16.169,1.445,1.445,0,0,1,.427.177.213.213,0,0,0,.233,0L4,288.983a1.42,1.42,0,0,1,.139.139l-.294.427a.213.213,0,0,0,0,.233,1.445,1.445,0,0,1,.177.427.213.213,0,0,0,.169.16l.512.094Z" transform="translate(0 -288)" fill="#de7f7f"/>
    </g>
  </g>
  <g id="Group_47" data-name="Group 47" transform="translate(5.028 1.301)">
    <g id="Group_46" data-name="Group 46" transform="translate(0 0)">
      <rect id="Rectangle_42" data-name="Rectangle 42" width="0.427" height="0.427" transform="translate(0 0.385) rotate(-64.519)" fill="#de7f7f"/>
    </g>
  </g>
  <g id="Group_49" data-name="Group 49" transform="translate(7.339 2.401)">
    <g id="Group_48" data-name="Group 48" transform="translate(0 0)">
      <rect id="Rectangle_43" data-name="Rectangle 43" width="0.427" height="0.427" transform="translate(0 0.385) rotate(-64.539)" fill="#de7f7f"/>
    </g>
  </g>
  <g id="Group_51" data-name="Group 51" transform="translate(5.798 1.669)">
    <g id="Group_50" data-name="Group 50" transform="translate(0 0)">
      <rect id="Rectangle_44" data-name="Rectangle 44" width="0.427" height="0.427" transform="translate(0 0.385) rotate(-64.539)" fill="#de7f7f"/>
    </g>
  </g>
  <g id="Group_53" data-name="Group 53" transform="translate(8.879 3.134)">
    <g id="Group_52" data-name="Group 52" transform="translate(0 0)">
      <rect id="Rectangle_45" data-name="Rectangle 45" width="0.427" height="0.427" transform="translate(0 0.385) rotate(-64.539)" fill="#de7f7f"/>
    </g>
  </g>
  <g id="Group_55" data-name="Group 55" transform="translate(8.11 2.768)">
    <g id="Group_54" data-name="Group 54" transform="translate(0 0)">
      <rect id="Rectangle_46" data-name="Rectangle 46" width="0.427" height="0.427" transform="translate(0 0.385) rotate(-64.539)" fill="#de7f7f"/>
    </g>
  </g>
  <g id="Group_57" data-name="Group 57" transform="translate(6.57 2.034)">
    <g id="Group_56" data-name="Group 56" transform="translate(0 0)">
      <rect id="Rectangle_47" data-name="Rectangle 47" width="0.427" height="0.427" transform="translate(0 0.385) rotate(-64.539)" fill="#de7f7f"/>
    </g>
  </g>
  <g id="Group_59" data-name="Group 59" transform="translate(5.632 5.969)">
    <g id="Group_58" data-name="Group 58">
      <path id="Path_111" data-name="Path 111" d="M211.855,224.213l-.2-.373-.373.2.075.137-.151.316.386.183.183-.384-.034-.017Z" transform="translate(-211.2 -223.84)" fill="#de7f7f"/>
    </g>
  </g>
  <g id="Group_61" data-name="Group 61" transform="translate(4.09 5.509)">
    <g id="Group_60" data-name="Group 60" transform="translate(0 0)">
      <rect id="Rectangle_48" data-name="Rectangle 48" width="0.427" height="0.427" transform="translate(0 0.385) rotate(-64.519)" fill="#de7f7f"/>
    </g>
  </g>
  <g id="Group_63" data-name="Group 63" transform="translate(6.403 6.609)">
    <g id="Group_62" data-name="Group 62" transform="translate(0 0)">
      <rect id="Rectangle_49" data-name="Rectangle 49" width="0.427" height="0.427" transform="translate(0 0.385) rotate(-64.519)" fill="#de7f7f"/>
    </g>
  </g>
  <g id="Group_65" data-name="Group 65" transform="translate(7.174 6.976)">
    <g id="Group_64" data-name="Group 64" transform="translate(0 0)">
      <rect id="Rectangle_50" data-name="Rectangle 50" width="0.427" height="0.427" transform="translate(0 0.385) rotate(-64.519)" fill="#de7f7f"/>
    </g>
  </g>
  <g id="Group_67" data-name="Group 67" transform="translate(3.321 5.142)">
    <g id="Group_66" data-name="Group 66" transform="translate(0 0)">
      <rect id="Rectangle_51" data-name="Rectangle 51" width="0.427" height="0.427" transform="translate(0 0.385) rotate(-64.519)" fill="#de7f7f"/>
    </g>
  </g>
  <g id="Group_69" data-name="Group 69" transform="translate(7.259 9.68)">
    <g id="Group_68" data-name="Group 68" transform="translate(0 0)">
      <rect id="Rectangle_52" data-name="Rectangle 52" width="0.427" height="0.427" transform="translate(0 0.206) rotate(-28.81)" fill="#de7f7f"/>
    </g>
  </g>
  <g id="Group_71" data-name="Group 71" transform="translate(8.756 8.856)">
    <g id="Group_70" data-name="Group 70" transform="translate(0 0)">
      <rect id="Rectangle_53" data-name="Rectangle 53" width="0.427" height="0.427" transform="translate(0 0.206) rotate(-28.823)" fill="#de7f7f"/>
    </g>
  </g>
  <g id="Group_73" data-name="Group 73" transform="translate(6.514 10.089)">
    <g id="Group_72" data-name="Group 72" transform="translate(0 0)">
      <rect id="Rectangle_54" data-name="Rectangle 54" width="0.427" height="0.427" transform="translate(0 0.206) rotate(-28.823)" fill="#de7f7f"/>
    </g>
  </g>
  <g id="Group_75" data-name="Group 75" transform="translate(8.009 9.268)">
    <g id="Group_74" data-name="Group 74" transform="translate(0 0)">
      <rect id="Rectangle_55" data-name="Rectangle 55" width="0.427" height="0.427" transform="translate(0 0.206) rotate(-28.803)" fill="#de7f7f"/>
    </g>
  </g>
  <g id="Group_77" data-name="Group 77" transform="translate(5.017 10.913)">
    <g id="Group_76" data-name="Group 76" transform="translate(0 0)">
      <rect id="Rectangle_56" data-name="Rectangle 56" width="0.427" height="0.427" transform="translate(0 0.206) rotate(-28.81)" fill="#de7f7f"/>
    </g>
  </g>
  <g id="Group_79" data-name="Group 79" transform="translate(5.764 10.502)">
    <g id="Group_78" data-name="Group 78" transform="translate(0 0)">
      <rect id="Rectangle_57" data-name="Rectangle 57" width="0.427" height="0.427" transform="translate(0 0.206) rotate(-28.823)" fill="#de7f7f"/>
    </g>
  </g>
  <g id="Group_81" data-name="Group 81" transform="translate(4.861 5.875)">
    <g id="Group_80" data-name="Group 80">
      <path id="Path_112" data-name="Path 112" d="M182.791,220.826l-.075.041.173-.363-.386-.183-.183.384.371.177-.273.149.2.373.375-.2Z" transform="translate(-182.32 -220.32)" fill="#de7f7f"/>
    </g>
  </g>
  <g id="Group_83" data-name="Group 83" transform="translate(7.201 5.146)">
    <g id="Group_82" data-name="Group 82" transform="translate(0 0)">
      <rect id="Rectangle_58" data-name="Rectangle 58" width="0.427" height="0.427" transform="translate(0 0.206) rotate(-28.81)" fill="#de7f7f"/>
    </g>
  </g>
  <g id="Group_85" data-name="Group 85" transform="translate(3.464 7.2)">
    <g id="Group_84" data-name="Group 84" transform="translate(0 0)">
      <rect id="Rectangle_59" data-name="Rectangle 59" width="0.427" height="0.427" transform="translate(0 0.206) rotate(-28.823)" fill="#de7f7f"/>
    </g>
  </g>
  <g id="Group_87" data-name="Group 87" transform="translate(4.21 6.792)">
    <g id="Group_86" data-name="Group 86" transform="translate(0 0)">
      <rect id="Rectangle_60" data-name="Rectangle 60" width="0.427" height="0.427" transform="matrix(0.876, -0.482, 0.482, 0.876, 0, 0.206)" fill="#de7f7f"/>
    </g>
  </g>
  <g id="Group_89" data-name="Group 89" transform="translate(6.455 5.557)">
    <g id="Group_88" data-name="Group 88" transform="translate(0 0)">
      <rect id="Rectangle_61" data-name="Rectangle 61" width="0.427" height="0.427" transform="translate(0 0.206) rotate(-28.81)" fill="#de7f7f"/>
    </g>
  </g>
  <g id="Group_91" data-name="Group 91" transform="translate(1.493 1.493)">
    <g id="Group_90" data-name="Group 90">
      <path id="Path_113" data-name="Path 113" d="M57.067,56a1.067,1.067,0,1,0,1.067,1.067A1.067,1.067,0,0,0,57.067,56Zm0,1.707a.64.64,0,1,1,.64-.64A.64.64,0,0,1,57.067,57.707Z" transform="translate(-56 -56)" fill="#de7f7f"/>
    </g>
  </g>
  <g id="Group_93" data-name="Group 93" transform="translate(9.173 5.333)">
    <g id="Group_92" data-name="Group 92">
      <path id="Path_114" data-name="Path 114" d="M345.067,200a1.067,1.067,0,1,0,1.067,1.067A1.067,1.067,0,0,0,345.067,200Zm0,1.707a.64.64,0,1,1,.64-.64A.64.64,0,0,1,345.067,201.707Z" transform="translate(-344 -200)" fill="#de7f7f"/>
    </g>
  </g>
  <g id="Group_95" data-name="Group 95" transform="translate(1.493 9.173)">
    <g id="Group_94" data-name="Group 94">
      <path id="Path_115" data-name="Path 115" d="M57.067,344a1.067,1.067,0,1,0,1.067,1.067A1.067,1.067,0,0,0,57.067,344Zm0,1.707a.64.64,0,1,1,.64-.64A.64.64,0,0,1,57.067,345.707Z" transform="translate(-56 -344)" fill="#de7f7f"/>
    </g>
  </g>
</svg>
