<svg xmlns="http://www.w3.org/2000/svg" width="512" height="471.52" viewBox="0 0 512 471.52">
  <g id="trustworthy" transform="translate(0 -20.24)">
    <g id="Group_437" data-name="Group 437">
      <g id="Group_436" data-name="Group 436">
        <path id="Path_694" data-name="Path 694" d="M241.453,182.738a132.729,132.729,0,0,0-85.02-19.176A134.168,134.168,0,0,0,53.106,233.249a10,10,0,1,0,17.6,9.506,114.163,114.163,0,0,1,87.913-59.312,112.883,112.883,0,0,1,72.322,16.309,10,10,0,0,0,10.515-17.014Z" fill="#745beb"/>
      </g>
    </g>
    <g id="Group_439" data-name="Group 439">
      <g id="Group_438" data-name="Group 438">
        <path id="Path_695" data-name="Path 695" d="M52.346,279.76H10a10,10,0,0,0,0,20H52.346a10,10,0,0,0,0-20Z" fill="#745beb"/>
      </g>
    </g>
    <g id="Group_441" data-name="Group 441">
      <g id="Group_440" data-name="Group 440">
        <path id="Path_696" data-name="Path 696" d="M458.894,233.249a134.191,134.191,0,0,0-155.11-65.3,10,10,0,0,0,5.558,19.213,114.189,114.189,0,0,1,131.955,55.6,10,10,0,0,0,17.6-9.506Z" fill="#745beb"/>
      </g>
    </g>
    <g id="Group_443" data-name="Group 443">
      <g id="Group_442" data-name="Group 442">
        <path id="Path_697" data-name="Path 697" d="M502,279.76H459.654a10,10,0,1,0,0,20H502a10,10,0,0,0,0-20Z" fill="#745beb"/>
      </g>
    </g>
    <g id="Group_445" data-name="Group 445">
      <g id="Group_444" data-name="Group 444">
        <path id="Path_698" data-name="Path 698" d="M502,386.26H451.761a91.009,91.009,0,0,0-63.512,25.959c-30.478,29.5-68.78,51.073-105.083,59.2a13.977,13.977,0,0,1-16.722-10.6,14,14,0,0,1,10.6-16.72,186.684,186.684,0,0,0,90.884-49.842,119.3,119.3,0,0,0,30.111-48.859A92.828,92.828,0,0,0,402.482,318c0-17.021-7.009-33.248-19.737-45.693a72.986,72.986,0,0,0-52.357-20.685,69.929,69.929,0,0,0-41.773,14.9,14,14,0,0,1-19.81-2.627,14.272,14.272,0,0,1,2.972-19.749,97.647,97.647,0,0,1,60.246-20.539,99.045,99.045,0,0,1,79.663,40.565,10,10,0,1,0,16.148-11.8,119.108,119.108,0,0,0-95.812-48.767,117.475,117.475,0,0,0-72.477,24.715A34.561,34.561,0,0,0,256,231.482a34.666,34.666,0,0,0-3.546-3.161,117.477,117.477,0,0,0-72.477-24.715,119.107,119.107,0,0,0-95.812,48.767,10,10,0,1,0,16.148,11.8,99.045,99.045,0,0,1,79.663-40.565,97.655,97.655,0,0,1,60.246,20.539,14.273,14.273,0,0,1,2.971,19.749,14,14,0,0,1-19.81,2.627,69.92,69.92,0,0,0-41.772-14.9,72.946,72.946,0,0,0-52.357,20.685c-12.728,12.445-19.737,28.673-19.737,45.693a92.816,92.816,0,0,0,4.438,27.387,119.306,119.306,0,0,0,30.111,48.86,186.688,186.688,0,0,0,90.884,49.842,14,14,0,0,1,10.6,16.719,13.975,13.975,0,0,1-16.72,10.605c-36.306-8.125-74.608-29.7-105.086-59.2A91.007,91.007,0,0,0,60.235,386.26H10a10,10,0,0,0,0,20H60.239a71.11,71.11,0,0,1,49.6,20.33c33.049,31.985,74.829,55.438,114.628,64.345A33.791,33.791,0,0,0,256,481.646a33.795,33.795,0,0,0,31.532,9.289c39.8-8.907,81.577-32.359,114.626-64.345a71.112,71.112,0,0,1,49.6-20.33H502a10,10,0,0,0,0-20ZM256,433.775a33.752,33.752,0,0,0-16.679-9.2,166.7,166.7,0,0,1-81.157-44.514,99.251,99.251,0,0,1-25.1-40.6A72.938,72.938,0,0,1,129.517,318c0-11.594,4.873-22.742,13.719-31.394a52.933,52.933,0,0,1,37.927-14.99,50.074,50.074,0,0,1,29.912,10.666A34,34,0,0,0,256,279.571a34,34,0,0,0,44.925,2.714,50.075,50.075,0,0,1,29.912-10.666,53.063,53.063,0,0,1,37.927,14.99c8.847,8.651,13.719,19.8,13.719,31.394a72.917,72.917,0,0,1-3.541,21.463,99.233,99.233,0,0,1-25.1,40.6,166.7,166.7,0,0,1-81.157,44.514A33.766,33.766,0,0,0,256,433.775Z" fill="#745beb"/>
      </g>
    </g>
    <g id="Group_447" data-name="Group 447">
      <g id="Group_446" data-name="Group 446">
        <path id="Path_699" data-name="Path 699" d="M255.987,20.24a10,10,0,0,0-10,10V89.733a10,10,0,0,0,20,0V30.24A10,10,0,0,0,255.987,20.24Z" fill="#745beb"/>
      </g>
    </g>
    <g id="Group_449" data-name="Group 449">
      <g id="Group_448" data-name="Group 448">
        <path id="Path_700" data-name="Path 700" d="M199.324,105.621,175.4,81.716a10,10,0,0,0-14.137,14.149l23.925,23.9a10,10,0,0,0,14.137-14.149Z" fill="#745beb"/>
      </g>
    </g>
    <g id="Group_451" data-name="Group 451">
      <g id="Group_450" data-name="Group 450">
        <path id="Path_701" data-name="Path 701" d="M146.132,52.457a10,10,0,1,0,.668,14.131l.01-.011A9.993,9.993,0,0,0,146.132,52.457Z" fill="#745beb"/>
      </g>
    </g>
    <g id="Group_453" data-name="Group 453">
      <g id="Group_452" data-name="Group 452">
        <path id="Path_702" data-name="Path 702" d="M379.11,53.371a10,10,0,0,0-14.142,0L311.161,107.2A10,10,0,1,0,325.3,121.34l53.807-53.827A10,10,0,0,0,379.11,53.371Z" fill="#745beb"/>
      </g>
    </g>
    <g id="Group_455" data-name="Group 455">
      <g id="Group_454" data-name="Group 454">
        <circle id="Ellipse_180" data-name="Ellipse 180" cx="10" cy="10" r="10" transform="translate(265.85 181.22)" fill="#745beb"/>
      </g>
    </g>
  </g>
</svg>
